HIERARCHY
ROOT Hips
{
	OFFSET -0.001795 -0.223333 0.028219
	CHANNELS 6 Xposition Yposition Zposition Zrotation Yrotation Xrotation 
	JOINT LeftUpLeg
	{
		OFFSET 0.069520 -0.091406 -0.006815
		CHANNELS 3 Zrotation Yrotation Xrotation
		JOINT LeftLeg
		{
			OFFSET 0.034277 -0.375199 -0.004496
			CHANNELS 3 Zrotation Yrotation Xrotation
			JOINT LeftFoot
			{
				OFFSET -0.013596 -0.397961 -0.043693
				CHANNELS 3 Zrotation Yrotation Xrotation
				JOINT LeftToe
				{
					OFFSET 0.026358 -0.055791 0.119288
					CHANNELS 3 Zrotation Yrotation Xrotation
					End Site
					{
						OFFSET 0.000000 0.000000 0.000000
					}
				}
			}
		}
	}
	JOINT RightUpLeg
	{
		OFFSET -0.067670 -0.090522 -0.004320
		CHANNELS 3 Zrotation Yrotation Xrotation
		JOINT RightLeg
		{
			OFFSET -0.038290 -0.382569 -0.008850
			CHANNELS 3 Zrotation Yrotation Xrotation
			JOINT RightFoot
			{
				OFFSET 0.015774 -0.398415 -0.042312
				CHANNELS 3 Zrotation Yrotation Xrotation
				JOINT RightToe
				{
					OFFSET -0.025372 -0.048144 0.123348
					CHANNELS 3 Zrotation Yrotation Xrotation
					End Site
					{
						OFFSET 0.000000 0.000000 0.000000
					}
				}
			}
		}
	}
	JOINT Spine
	{
		OFFSET -0.002533 0.108963 -0.026696
		CHANNELS 3 Zrotation Yrotation Xrotation
		JOINT Spine1
		{
			OFFSET 0.005487 0.135180 0.001092
			CHANNELS 3 Zrotation Yrotation Xrotation
			JOINT Spine2
			{
				OFFSET 0.001457 0.052922 0.025425
				CHANNELS 3 Zrotation Yrotation Xrotation
				JOINT Neck
				{
					OFFSET -0.002778 0.213870 -0.042857
					CHANNELS 3 Zrotation Yrotation Xrotation
					JOINT Head
					{
						OFFSET 0.005152 0.064970 0.051349
						CHANNELS 3 Zrotation Yrotation Xrotation
						End Site
						{
							OFFSET 0.000000 0.000000 0.000000
						}
					}
				}
				JOINT LeftShoulder
				{
					OFFSET 0.078845 0.121749 -0.034090
					CHANNELS 3 Zrotation Yrotation Xrotation
					JOINT LeftArm
					{
						OFFSET 0.090977 0.030469 -0.008868
						CHANNELS 3 Zrotation Yrotation Xrotation
						JOINT LeftForeArm
						{
							OFFSET 0.259612 -0.012772 -0.027456
							CHANNELS 3 Zrotation Yrotation Xrotation
							JOINT LeftHand
							{
								OFFSET 0.249234 0.008986 -0.001171
								CHANNELS 3 Zrotation Yrotation Xrotation
								End Site
								{
									OFFSET 0.000000 0.000000 0.000000
								}
							}
						}
					}
				}
				JOINT RightShoulder
				{
					OFFSET -0.081759 0.118833 -0.038615
					CHANNELS 3 Zrotation Yrotation Xrotation
					JOINT RightArm
					{
						OFFSET -0.096012 0.032551 -0.009143
						CHANNELS 3 Zrotation Yrotation Xrotation
						JOINT RightForeArm
						{
							OFFSET -0.253742 -0.013329 -0.021401
							CHANNELS 3 Zrotation Yrotation Xrotation
							JOINT RightHand
							{
								OFFSET -0.255298 0.007772 -0.005559
								CHANNELS 3 Zrotation Yrotation Xrotation
								End Site
								{
									OFFSET 0.000000 0.000000 0.000000
								}
							}
						}
					}
				}
			}
		}
	}
}
MOTION
Frames: 15
Frame Time: 0.050000
0.113605 0.945017 0.899124 -0.126511 0.325187 4.653511 5.601620 -0.008236 2.978200 -7.313228 0.444319 -11.222889 4.877684 12.921950 14.913661 0.000000 0.000000 0.000000 -3.809413 0.082198 0.667656 3.415464 -0.437682 -8.041339 -4.942248 -14.496780 14.659407 0.000000 0.000000 0.000000 -3.724949 0.073630 1.354808 5.658967 -0.819417 -22.831199 -0.743209 -1.539132 29.136822 0.434526 1.811557 -38.469523 0.000000 0.000000 0.000000 -35.618717 5.054717 -5.770300 -45.529438 3.245929 -8.725392 -30.759457 -54.880452 20.227746 0.000000 0.000000 0.000000 29.058613 5.132537 1.043046 48.494314 -2.594764 -7.738660 5.769072 36.326516 3.459171 0.000000 0.000000 0.000000 
0.113190 0.944782 0.899603 -0.079374 0.809847 4.622887 5.693671 -0.020677 2.964845 -7.426959 0.432316 -11.191614 4.643304 12.600599 14.780076 0.000000 0.000000 0.000000 -3.829177 0.065638 0.860042 3.495371 -0.447364 -8.147570 -5.175099 -14.843761 14.669447 0.000000 0.000000 0.000000 -3.609606 0.068915 1.281022 5.577206 -0.796083 -22.778196 -0.766978 -1.533737 29.097027 0.777663 1.702472 -38.367874 0.000000 0.000000 0.000000 -35.210692 4.848481 -5.711725 -45.172589 3.090149 -8.558465 -33.646935 -56.278801 22.416593 0.000000 0.000000 0.000000 29.128619 5.269582 1.282095 48.558470 -2.058379 -7.592560 5.123005 34.575978 3.097564 0.000000 0.000000 0.000000 
0.112945 0.944447 0.899859 -0.002630 1.169285 4.591575 5.753624 -0.025486 3.053814 -7.586938 0.418599 -11.333935 4.451136 12.339964 14.714713 0.000000 0.000000 0.000000 -4.000381 0.059047 1.007329 3.746596 -0.461607 -8.225498 -5.350638 -15.103474 14.630516 0.000000 0.000000 0.000000 -3.584713 0.068151 1.157229 5.621437 -0.802641 -22.787413 -0.763974 -1.570897 29.088857 0.881531 1.676741 -38.200766 0.000000 0.000000 0.000000 -34.562170 4.895871 -5.735590 -45.201663 3.083593 -8.535623 -36.555478 -57.856519 24.880587 0.000000 0.000000 0.000000 29.078746 5.480431 1.514910 48.657630 -1.724919 -7.505397 4.668803 33.483607 2.864064 0.000000 0.000000 0.000000 
0.112872 0.943948 0.899752 0.089871 1.639141 4.419691 5.784081 -0.035436 2.979814 -7.724448 0.417674 -10.981451 4.261195 12.047287 14.388651 0.000000 0.000000 0.000000 -4.061533 0.045150 1.161619 3.767852 -0.467397 -8.051347 -5.607463 -15.486593 14.462100 0.000000 0.000000 0.000000 -3.652027 0.067713 1.128855 5.734089 -0.846425 -22.501250 -0.790832 -1.725107 28.874619 1.081896 1.609012 -38.124831 0.000000 0.000000 0.000000 -34.191974 4.624069 -5.554833 -45.071685 2.780666 -8.375072 -38.186959 -59.417939 26.641641 0.000000 0.000000 0.000000 28.969971 5.646467 1.689202 48.314572 -1.402216 -7.336271 4.624442 32.976128 2.798044 0.000000 0.000000 0.000000 
0.113034 0.943512 0.899284 0.214463 1.913043 4.441746 5.810454 -0.044154 2.906947 -7.984262 0.410701 -11.001709 4.123776 11.852136 14.296918 0.000000 0.000000 0.000000 -4.222401 0.051458 1.124151 3.841212 -0.473294 -8.002638 -5.771531 -15.734331 14.348064 0.000000 0.000000 0.000000 -3.648381 0.068208 1.021282 5.868703 -0.891691 -22.294641 -0.875965 -1.793905 28.726988 1.143730 1.591248 -37.992475 0.000000 0.000000 0.000000 -33.886109 4.421503 -5.411043 -45.069058 2.409949 -8.226327 -38.152073 -60.622769 27.220936 0.000000 0.000000 0.000000 28.880602 5.874476 1.883788 48.337018 -1.143089 -7.238657 4.686410 32.827441 2.801000 0.000000 0.000000 0.000000 
0.113413 0.943066 0.898413 0.275006 2.013127 4.507035 5.770058 -0.050246 2.755541 -8.063653 0.408763 -10.979750 4.099974 11.803510 14.173152 0.000000 0.000000 0.000000 -4.278639 0.078291 0.739799 3.790846 -0.467777 -7.511403 -5.893764 -15.916952 14.083093 0.000000 0.000000 0.000000 -3.641568 0.070392 0.825261 6.154942 -0.986956 -21.987868 -0.963788 -1.890879 28.473943 1.668357 1.360644 -37.987324 0.000000 0.000000 0.000000 -33.691239 4.136015 -5.161866 -45.318884 2.000847 -8.119302 -37.129170 -61.617956 27.094905 0.000000 0.000000 0.000000 28.704334 5.949607 1.908591 48.286142 -0.852464 -7.091206 5.328617 33.060048 2.994312 0.000000 0.000000 0.000000 
0.113995 0.942784 0.897332 0.332905 2.088495 4.466945 5.748970 -0.052885 2.676035 -8.199635 0.410678 -10.897212 4.075483 11.755506 14.071538 0.000000 0.000000 0.000000 -4.311743 0.091243 0.540743 3.674431 -0.460159 -7.175357 -5.977209 -16.045363 13.920298 0.000000 0.000000 0.000000 -3.540930 0.066539 0.893362 6.321303 -1.044084 -21.797388 -1.137304 -2.003156 28.241399 1.941336 1.237685 -38.038181 0.000000 0.000000 0.000000 -33.932727 3.743749 -4.888242 -45.294351 1.265127 -7.859949 -34.219938 -61.950167 25.368052 0.000000 0.000000 0.000000 28.758527 6.140749 1.991887 48.076122 -0.777767 -7.002708 5.894019 33.961499 3.242196 0.000000 0.000000 0.000000 
0.114646 0.942894 0.896338 0.365561 2.202295 4.468911 5.700312 -0.055047 2.602475 -8.237823 0.406784 -10.908611 4.010921 11.674058 14.097667 0.000000 0.000000 0.000000 -4.358982 0.106970 0.302406 3.629889 -0.455845 -6.836300 -6.058098 -16.175199 13.912628 0.000000 0.000000 0.000000 -3.619423 0.068029 0.962641 6.609969 -1.132794 -21.613756 -1.257994 -2.219930 27.797091 2.392925 1.043963 -38.257170 0.000000 0.000000 0.000000 -34.136935 3.293546 -4.537672 -45.414516 0.347136 -7.552289 -30.607534 -62.476812 23.293852 0.000000 0.000000 0.000000 28.791826 6.250129 1.980808 47.561419 -0.706420 -6.843987 7.089649 35.471168 3.751998 0.000000 0.000000 0.000000 
0.115245 0.943205 0.895727 0.270991 2.159700 4.360880 5.669150 -0.047024 2.723211 -8.081039 0.404494 -10.978930 4.023749 11.698884 14.146929 0.000000 0.000000 0.000000 -4.305638 0.101864 0.347819 3.636963 -0.455483 -6.796248 -6.010782 -16.105213 14.045718 0.000000 0.000000 0.000000 -3.510177 0.062013 1.151502 6.868347 -1.199575 -21.650443 -1.430432 -2.493126 27.608801 2.441508 0.981857 -38.244683 0.000000 0.000000 0.000000 -34.458698 3.401435 -4.525228 -45.546603 -0.246790 -7.399270 -28.341095 -63.569395 22.384042 0.000000 0.000000 0.000000 28.757966 6.508717 2.011941 47.006151 -0.750458 -6.728374 7.905102 37.342888 4.212845 0.000000 0.000000 0.000000 
0.115693 0.943473 0.895490 0.180444 2.109626 4.183566 5.703420 -0.038412 2.918905 -8.027799 0.405153 -10.999393 4.035386 11.716893 14.174009 0.000000 0.000000 0.000000 -4.266382 0.085055 0.569337 3.680951 -0.458314 -6.891655 -5.945010 -16.005133 14.182218 0.000000 0.000000 0.000000 -3.468062 0.058494 1.195860 6.996358 -1.240417 -21.594362 -1.420146 -2.551739 27.395006 2.858606 0.797016 -38.311442 0.000000 0.000000 0.000000 -34.665998 3.027465 -4.234196 -45.407941 -1.253689 -7.036428 -26.562174 -65.518377 22.049202 0.000000 0.000000 0.000000 28.737726 6.539685 1.982784 46.018271 -0.950150 -6.630247 9.264789 39.470951 4.937743 0.000000 0.000000 0.000000 
0.115998 0.943703 0.895371 0.065313 2.180347 4.048697 5.788473 -0.034812 3.127226 -7.979244 0.397285 -11.139291 3.984196 11.654611 14.217366 0.000000 0.000000 0.000000 -4.205842 0.073595 0.684422 3.772748 -0.463454 -6.838213 -5.948720 -16.012380 14.292469 0.000000 0.000000 0.000000 -3.576598 0.058859 1.325153 7.012791 -1.215386 -21.940655 -1.422447 -2.803026 27.531695 2.815730 0.792143 -38.436335 0.000000 0.000000 0.000000 -34.682243 3.119674 -4.193165 -45.226274 -2.790658 -6.534999 -26.981274 -68.563486 23.732941 0.000000 0.000000 0.000000 28.404570 6.528419 1.905555 45.616120 -0.605095 -6.450346 9.136327 41.432524 5.163139 0.000000 0.000000 0.000000 
0.116325 0.943921 0.895082 -0.103498 2.344874 3.954207 6.080502 -0.042573 3.427482 -8.179717 0.375113 -11.561367 3.855244 11.504065 14.372483 0.000000 0.000000 0.000000 -4.004793 0.060905 0.739624 3.731287 -0.462704 -6.760370 -6.003038 -16.099223 14.430532 0.000000 0.000000 0.000000 -3.730196 0.063068 1.204195 7.225899 -1.287311 -21.743492 -1.538880 -2.697720 27.235403 3.033019 0.734387 -38.392329 0.000000 0.000000 0.000000 -34.401502 2.535095 -3.843503 -44.496566 -5.582544 -5.442376 -26.385674 -72.420857 24.896729 0.000000 0.000000 0.000000 28.441211 6.965858 2.274520 44.424711 0.089858 -6.050574 8.055255 43.850871 5.097104 0.000000 0.000000 0.000000 
0.116824 0.943982 0.894577 -0.162557 2.292771 3.748913 6.053284 -0.032682 3.560778 -8.087335 0.381983 -11.446257 3.890656 11.538383 14.291034 0.000000 0.000000 0.000000 -4.047065 0.057272 0.791981 3.849539 -0.466560 -6.523975 -5.970550 -16.047625 14.398620 0.000000 0.000000 0.000000 -3.954563 0.065417 1.484313 7.253610 -1.291161 -21.809032 -1.315218 -2.813984 27.035848 2.451380 0.974625 -38.507016 0.000000 0.000000 0.000000 -34.510219 1.735529 -3.195601 -43.180212 -9.143468 -4.150886 -20.209943 -76.396257 21.701719 0.000000 0.000000 0.000000 27.813869 7.600360 2.628871 43.343279 1.542842 -5.407447 5.447647 45.879355 4.264001 0.000000 0.000000 0.000000 
0.117566 0.944388 0.894064 -0.285507 2.462074 3.508042 6.162226 -0.033321 3.733414 -8.099097 0.379223 -11.386757 3.793768 11.409921 14.286664 0.000000 0.000000 0.000000 -3.966151 0.043786 0.893772 3.880034 -0.468434 -6.261649 -6.024813 -16.134375 14.542306 0.000000 0.000000 0.000000 -4.117588 0.065544 1.748614 7.506482 -1.362489 -21.753620 -1.335227 -2.809116 26.423107 2.089674 1.132378 -38.157036 0.000000 0.000000 0.000000 -34.411362 0.674804 -2.491033 -41.572453 -12.916873 -2.770829 -1.830153 -79.129739 7.299123 0.000000 0.000000 0.000000 27.561193 8.603324 3.308409 41.264908 3.223590 -4.613080 0.808821 47.951618 2.456139 0.000000 0.000000 0.000000 
0.118375 0.944602 0.893839 -0.304826 2.410546 3.289126 5.924893 0.001895 4.211094 -7.751232 0.364605 -11.813664 3.773390 11.399177 14.408477 0.000000 0.000000 0.000000 -4.175549 0.031899 1.149296 4.183744 -0.485745 -6.324386 -5.953410 -16.024329 14.655212 0.000000 0.000000 0.000000 -4.153171 0.061890 2.141941 7.396340 -1.328746 -21.831865 -1.230471 -3.149302 26.177055 1.505375 1.333304 -38.159849 0.000000 0.000000 0.000000 -34.170097 -0.489248 -1.435008 -39.803346 -16.759730 -1.573416 26.538449 -77.994638 -15.812828 0.000000 0.000000 0.000000 26.783539 9.496631 3.714771 39.576726 5.785095 -3.633180 -4.392062 49.832021 0.152981 0.000000 0.000000 0.000000 
